# xmcd CD database file
#
# Track frame offsets:
#	187
#	5627
#	22955
#	37487
#	49257
#	63255
#	66257
#	75807
#	89500
#	99295
#	104602
#	116955
#	130885
#	143400
#	151275
#	167715
#	180587
#	183770
#	196315
#	207712
#	219590
#
# Disc length: 2946 seconds
#
# Revision: 1
# Processed by: cddbd v1.4PL0 Copyright (c) Steve Scherf et al.
# Submitted via: CDex 1.50beta8
#
DISCID=280b8015
DTITLE=HANK WILLIAMS - THE IMMORTAL HANK WILLIAMS Disc7
DYEAR=1988
DGENRE=Country
TTITLE0=ROVIN' COWBOY
TTITLE1=WEDDING BELLS
TTITLE2=LOVESICK BLUES
TTITLE3=I'LL HAVE A NEW BODY
TTITLE4=LOST HIGHWAY
TTITLE5=JOE CLARK
TTITLE6=WHERE THE SOUL OF MAN NEVER DIES
TTITLE7=I'M A LONG GONE DADDY
TTITLE8=I'M TELLIN' YOU
TTITLE9=BILL CHEATAM
TTITLE10=WHEN GOD COMES AND GATHERS HIS JEWELS
TTITLE11=I WANNA LIVE AND LOVE ALWAYS
TTITLE12=YOU'RE GONNA CHANGE(OR I'M GINNA LEAVE)
TTITLE13=THERE'S A BLUEBIRD ON YOUR WINDOWSILL
TTITLE14=THE TRAMP ON THE STREET
TTITLE15=HELP ME UNDERSTAND
TTITLE16=FINGERS ON FIRE
TTITLE17=PAN AMERICAN
TTITLE18=MIND YOUR OWN BUSINESS
TTITLE19=I SAW THE LIGHT
TTITLE20=HAPPY ROVIN' COWBOY(THEME)
EXTD=YEAR: 1988
EXTT0=
EXTT1=
EXTT2=
EXTT3=
EXTT4=
EXTT5=
EXTT6=
EXTT7=
EXTT8=
EXTT9=
EXTT10=
EXTT11=
EXTT12=
EXTT13=
EXTT14=
EXTT15=
EXTT16=
EXTT17=
EXTT18=
EXTT19=
EXTT20=
PLAYORDER=
